<svg xmlns="http://www.w3.org/2000/svg" id="icon-icon-twitter" viewBox="0 0 39 32">
<path d="M39.385 3.789c-1.353 0.607-2.924 1.055-4.568 1.266l-0.084 0.009c1.674-1.005 2.931-2.558 3.536-4.406l0.016-0.057c-1.474 0.889-3.189 1.567-5.017 1.937l-0.103 0.017c-1.48-1.574-3.575-2.555-5.9-2.555v0c-4.469 0-8.068 3.629-8.068 8.077 0 0.64 0.053 1.254 0.187 1.841-6.711-0.329-12.651-3.545-16.641-8.446-0.693 1.169-1.103 2.577-1.105 4.080v0.001c0.003 2.785 1.413 5.239 3.558 6.691l0.028 0.018c-1.344-0.037-2.596-0.4-3.688-1.014l0.040 0.021v0.089c0 3.923 2.799 7.182 6.469 7.933-0.617 0.169-1.326 0.267-2.057 0.267-0.021 0-0.042-0-0.063-0l0.003 0c-0.517 0-1.039-0.030-1.529-0.139 1.045 3.198 4.015 5.549 7.545 5.626-2.725 2.147-6.208 3.443-9.993 3.443-0.006 0-0.012 0-0.018 0h0.001c-0.662 0-1.298-0.030-1.933-0.111 3.577 2.306 7.815 3.623 12.386 3.623 14.859 0 22.981-12.307 22.981-22.976 0-0.357-0.013-0.702-0.030-1.043 1.603-1.138 2.949-2.558 4.047-4.192z"></path>
</svg>
