<svg xmlns="http://www.w3.org/2000/svg" id="icon-icon-linkedin" viewBox="0 0 32 32">
<path d="M27.312 0h-22.624c-2.588 0.003-4.685 2.1-4.688 4.688v22.624c0.003 2.588 2.1 4.685 4.688 4.688h22.624c2.588-0.003 4.685-2.1 4.688-4.688v-22.624c-0.003-2.588-2.1-4.685-4.688-4.688h-0zM11.312 25.376h-3.749v-13.127h3.749v13.127zM11.312 10.375h-3.749v-3.751h3.749v3.75zM24.437 25.375h-3.749v-7.5c-0.001-1.035-0.84-1.874-1.875-1.875h-0c-1.035 0.001-1.874 0.84-1.875 1.875v7.5h-3.75v-13.125h3.75v0.707c0.981-0.305 1.621-0.707 2.813-0.707 2.543 0.003 4.687 2.285 4.687 4.981v8.144z"></path>
</svg>
