<svg xmlns="http://www.w3.org/2000/svg" id="icon-icon-instagram" viewBox="0 0 32 32">
<path d="M23.168 0h-14.336c-4.87 0-8.832 3.962-8.832 8.831v14.337c0 4.87 3.962 8.832 8.831 8.832h14.337c4.87 0 8.832-3.962 8.832-8.831v-14.337c0-4.87-3.962-8.832-8.832-8.832zM29.161 23.169c-0.004 3.307-2.684 5.987-5.991 5.991h-14.337c-3.308-0.004-5.988-2.684-5.991-5.991v-14.337c0.004-3.307 2.684-5.987 5.991-5.991h14.336c3.307 0.004 5.987 2.684 5.991 5.991v14.336z"></path>
<path d="M16 7.755c-4.546 0-8.245 3.699-8.245 8.245 0 4.547 3.699 8.245 8.245 8.245s8.245-3.698 8.245-8.245c0-4.546-3.699-8.245-8.245-8.245zM16 21.406c-2.984-0.004-5.402-2.422-5.406-5.406v-0c0.004-2.984 2.422-5.402 5.406-5.406h0c2.985 0.003 5.403 2.421 5.407 5.406v0c-0.004 2.985-2.422 5.403-5.407 5.406h-0zM24.592 5.347c-0.575 0.001-1.095 0.234-1.472 0.61l0-0c-0.376 0.377-0.609 0.897-0.611 1.472v0c0 0.547 0.224 1.085 0.612 1.472 0.386 0.387 0.924 0.61 1.471 0.61 0.574-0.002 1.094-0.234 1.472-0.609l-0 0c0.388-0.388 0.609-0.926 0.609-1.472-0.001-0.575-0.233-1.096-0.609-1.473l0 0c-0.377-0.376-0.897-0.609-1.472-0.61h-0z"></path>
</svg>
